<mxfile host="Electron" agent="Mozilla/5.0 (Windows NT 10.0; Win64; x64) AppleWebKit/537.36 (KHTML, like Gecko) draw.io/27.0.9 Chrome/134.0.6998.205 Electron/35.4.0 Safari/537.36" version="27.0.9">
  <diagram name="Страница — 1" id="yyUtlfsY3DkH4NVAhOWo">
    <mxGraphModel dx="1426" dy="841" grid="1" gridSize="10" guides="1" tooltips="1" connect="1" arrows="1" fold="1" page="1" pageScale="1" pageWidth="827" pageHeight="1169" math="0" shadow="0">
      <root>
        <mxCell id="0" />
        <mxCell id="1" parent="0" />
        <mxCell id="yOkbsH9SgtzHtkvF55ci-1" value="" style="shape=umlLifeline;perimeter=lifelinePerimeter;whiteSpace=wrap;html=1;container=1;dropTarget=0;collapsible=0;recursiveResize=0;outlineConnect=0;portConstraint=eastwest;newEdgeStyle={&quot;curved&quot;:0,&quot;rounded&quot;:0};participant=umlActor;" parent="1" vertex="1">
          <mxGeometry x="50" y="40" width="20" height="510" as="geometry" />
        </mxCell>
        <mxCell id="yOkbsH9SgtzHtkvF55ci-2" value="Игроки" style="shape=umlLifeline;perimeter=lifelinePerimeter;whiteSpace=wrap;html=1;container=1;dropTarget=0;collapsible=0;recursiveResize=0;outlineConnect=0;portConstraint=eastwest;newEdgeStyle={&quot;curved&quot;:0,&quot;rounded&quot;:0};" parent="1" vertex="1">
          <mxGeometry x="150" y="40" width="100" height="510" as="geometry" />
        </mxCell>
        <mxCell id="yOkbsH9SgtzHtkvF55ci-6" value="" style="html=1;points=[[0,0,0,0,5],[0,1,0,0,-5],[1,0,0,0,5],[1,1,0,0,-5]];perimeter=orthogonalPerimeter;outlineConnect=0;targetShapes=umlLifeline;portConstraint=eastwest;newEdgeStyle={&quot;curved&quot;:0,&quot;rounded&quot;:0};" parent="yOkbsH9SgtzHtkvF55ci-2" vertex="1">
          <mxGeometry x="45" y="150" width="10" height="80" as="geometry" />
        </mxCell>
        <mxCell id="yOkbsH9SgtzHtkvF55ci-14" value="" style="html=1;points=[[0,0,0,0,5],[0,1,0,0,-5],[1,0,0,0,5],[1,1,0,0,-5]];perimeter=orthogonalPerimeter;outlineConnect=0;targetShapes=umlLifeline;portConstraint=eastwest;newEdgeStyle={&quot;curved&quot;:0,&quot;rounded&quot;:0};" parent="yOkbsH9SgtzHtkvF55ci-2" vertex="1">
          <mxGeometry x="45" y="360" width="10" height="80" as="geometry" />
        </mxCell>
        <mxCell id="yOkbsH9SgtzHtkvF55ci-3" value="База&lt;br&gt;Игроков" style="shape=umlLifeline;perimeter=lifelinePerimeter;whiteSpace=wrap;html=1;container=1;dropTarget=0;collapsible=0;recursiveResize=0;outlineConnect=0;portConstraint=eastwest;newEdgeStyle={&quot;curved&quot;:0,&quot;rounded&quot;:0};" parent="1" vertex="1">
          <mxGeometry x="290" y="40" width="100" height="510" as="geometry" />
        </mxCell>
        <mxCell id="yOkbsH9SgtzHtkvF55ci-8" value="" style="html=1;points=[[0,0,0,0,5],[0,1,0,0,-5],[1,0,0,0,5],[1,1,0,0,-5]];perimeter=orthogonalPerimeter;outlineConnect=0;targetShapes=umlLifeline;portConstraint=eastwest;newEdgeStyle={&quot;curved&quot;:0,&quot;rounded&quot;:0};" parent="yOkbsH9SgtzHtkvF55ci-3" vertex="1">
          <mxGeometry x="45" y="160" width="10" height="50" as="geometry" />
        </mxCell>
        <mxCell id="yOkbsH9SgtzHtkvF55ci-15" value="" style="html=1;points=[[0,0,0,0,5],[0,1,0,0,-5],[1,0,0,0,5],[1,1,0,0,-5]];perimeter=orthogonalPerimeter;outlineConnect=0;targetShapes=umlLifeline;portConstraint=eastwest;newEdgeStyle={&quot;curved&quot;:0,&quot;rounded&quot;:0};" parent="yOkbsH9SgtzHtkvF55ci-3" vertex="1">
          <mxGeometry x="45" y="370" width="10" height="60" as="geometry" />
        </mxCell>
        <mxCell id="yOkbsH9SgtzHtkvF55ci-5" value="поиск игрока&lt;br&gt;(никнейм)" style="html=1;verticalAlign=bottom;startArrow=oval;startFill=1;endArrow=block;startSize=8;curved=0;rounded=0;entryX=0;entryY=0;entryDx=0;entryDy=5;entryPerimeter=0;" parent="1" source="yOkbsH9SgtzHtkvF55ci-1" target="yOkbsH9SgtzHtkvF55ci-6" edge="1">
          <mxGeometry x="0.0406" width="60" relative="1" as="geometry">
            <mxPoint x="57.25" y="175" as="sourcePoint" />
            <mxPoint x="192.75" y="180" as="targetPoint" />
            <mxPoint as="offset" />
          </mxGeometry>
        </mxCell>
        <mxCell id="yOkbsH9SgtzHtkvF55ci-7" value="поиск игрока&lt;br&gt;(никнейм)" style="html=1;verticalAlign=bottom;endArrow=block;curved=0;rounded=0;entryX=0;entryY=0;entryDx=0;entryDy=5;entryPerimeter=0;" parent="1" source="yOkbsH9SgtzHtkvF55ci-6" target="yOkbsH9SgtzHtkvF55ci-8" edge="1">
          <mxGeometry y="-5" width="80" relative="1" as="geometry">
            <mxPoint x="227.75" y="190" as="sourcePoint" />
            <mxPoint x="307.75" y="190" as="targetPoint" />
            <mxPoint as="offset" />
          </mxGeometry>
        </mxCell>
        <mxCell id="yOkbsH9SgtzHtkvF55ci-9" value="пользователь" style="html=1;verticalAlign=bottom;endArrow=open;dashed=1;endSize=8;curved=0;rounded=0;exitX=0;exitY=1;exitDx=0;exitDy=-5;exitPerimeter=0;" parent="1" source="yOkbsH9SgtzHtkvF55ci-8" target="yOkbsH9SgtzHtkvF55ci-6" edge="1">
          <mxGeometry relative="1" as="geometry">
            <mxPoint x="317.75" y="220" as="sourcePoint" />
            <mxPoint x="237.75" y="220" as="targetPoint" />
            <mxPoint as="offset" />
          </mxGeometry>
        </mxCell>
        <mxCell id="yOkbsH9SgtzHtkvF55ci-10" value="пользователь" style="html=1;verticalAlign=bottom;endArrow=open;dashed=1;endSize=8;curved=0;rounded=0;exitX=0;exitY=1;exitDx=0;exitDy=-5;exitPerimeter=0;" parent="1" source="yOkbsH9SgtzHtkvF55ci-6" target="yOkbsH9SgtzHtkvF55ci-1" edge="1">
          <mxGeometry relative="1" as="geometry">
            <mxPoint x="157.75" y="240" as="sourcePoint" />
            <mxPoint x="57.25" y="245" as="targetPoint" />
          </mxGeometry>
        </mxCell>
        <mxCell id="yOkbsH9SgtzHtkvF55ci-12" value="Поиск игрока" style="shape=umlFrame;whiteSpace=wrap;html=1;pointerEvents=0;width=110;height=30;" parent="1" vertex="1">
          <mxGeometry x="50" y="120" width="300" height="200" as="geometry" />
        </mxCell>
        <mxCell id="yOkbsH9SgtzHtkvF55ci-13" value="список_игроков" style="html=1;verticalAlign=bottom;startArrow=oval;startFill=1;endArrow=block;startSize=8;curved=0;rounded=0;entryX=0;entryY=0;entryDx=0;entryDy=5;entryPerimeter=0;" parent="1" source="yOkbsH9SgtzHtkvF55ci-1" target="yOkbsH9SgtzHtkvF55ci-14" edge="1">
          <mxGeometry width="60" relative="1" as="geometry">
            <mxPoint x="60" y="410" as="sourcePoint" />
            <mxPoint x="120" y="410" as="targetPoint" />
          </mxGeometry>
        </mxCell>
        <mxCell id="yOkbsH9SgtzHtkvF55ci-16" value="список_игроков" style="html=1;verticalAlign=bottom;endArrow=block;curved=0;rounded=0;entryX=0;entryY=0;entryDx=0;entryDy=5;entryPerimeter=0;" parent="1" source="yOkbsH9SgtzHtkvF55ci-14" target="yOkbsH9SgtzHtkvF55ci-15" edge="1">
          <mxGeometry width="80" relative="1" as="geometry">
            <mxPoint x="220" y="420" as="sourcePoint" />
            <mxPoint x="300" y="420" as="targetPoint" />
          </mxGeometry>
        </mxCell>
        <mxCell id="yOkbsH9SgtzHtkvF55ci-17" value="list&amp;lt;Пользователь&amp;gt;" style="html=1;verticalAlign=bottom;endArrow=open;dashed=1;endSize=8;curved=0;rounded=0;exitX=0;exitY=1;exitDx=0;exitDy=-5;exitPerimeter=0;" parent="1" source="yOkbsH9SgtzHtkvF55ci-15" target="yOkbsH9SgtzHtkvF55ci-14" edge="1">
          <mxGeometry relative="1" as="geometry">
            <mxPoint x="310" y="470" as="sourcePoint" />
            <mxPoint x="230" y="470" as="targetPoint" />
          </mxGeometry>
        </mxCell>
        <mxCell id="yOkbsH9SgtzHtkvF55ci-18" value="list&amp;lt;Пользователь&amp;gt;" style="html=1;verticalAlign=bottom;endArrow=open;dashed=1;endSize=8;curved=0;rounded=0;exitX=0;exitY=1;exitDx=0;exitDy=-5;exitPerimeter=0;" parent="1" source="yOkbsH9SgtzHtkvF55ci-14" target="yOkbsH9SgtzHtkvF55ci-1" edge="1">
          <mxGeometry relative="1" as="geometry">
            <mxPoint x="160" y="480" as="sourcePoint" />
            <mxPoint x="80" y="480" as="targetPoint" />
          </mxGeometry>
        </mxCell>
        <mxCell id="yOkbsH9SgtzHtkvF55ci-19" value="Вывод списка всех игроков" style="shape=umlFrame;whiteSpace=wrap;html=1;pointerEvents=0;width=160;height=30;" parent="1" vertex="1">
          <mxGeometry x="50" y="330" width="300" height="200" as="geometry" />
        </mxCell>
      </root>
    </mxGraphModel>
  </diagram>
</mxfile>
